<svg width="15" height="15" viewBox="0 0 15 15" fill="none" xmlns="http://www.w3.org/2000/svg">
<g clip-path="url(#clip0)">
<path d="M4.43598 3.78825C4.17658 3.78825 3.96631 3.57798 3.96631 3.31857V0.469675C3.96631 0.210267 4.17658 0 4.43598 0C4.69539 0 4.90566 0.210267 4.90566 0.469675V3.31857C4.90566 3.57798 4.69539 3.78825 4.43598 3.78825Z" fill="url(#paint0_linear)"/>
<path d="M10.5639 3.78825C10.3045 3.78825 10.0942 3.57798 10.0942 3.31857V0.469675C10.0942 0.210267 10.3045 0 10.5639 0C10.8233 0 11.0336 0.210267 11.0336 0.469675V3.31857C11.0336 3.57798 10.8233 3.78825 10.5639 3.78825Z" fill="url(#paint1_linear)"/>
<path d="M0.712158 6.51611V12.9967C0.712158 14.1014 1.61091 15.0001 2.71564 15.0001H12.2842C13.389 15.0001 14.2877 14.1014 14.2877 12.9967V6.51611H0.712158Z" fill="url(#paint2_linear)"/>
<path d="M14.2877 5.57653V3.42783C14.2877 2.3231 13.3889 1.42435 12.2842 1.42435H11.9729V3.31845C11.9729 4.09541 11.3408 4.72748 10.5639 4.72748C9.78689 4.72748 9.15483 4.09541 9.15483 3.31845V1.42432H5.84506V3.31842C5.84506 4.09538 5.21299 4.72745 4.43603 4.72745C3.65907 4.72745 3.02701 4.09538 3.02701 3.31842V1.42432H2.71564C1.61091 1.42432 0.712158 2.32307 0.712158 3.4278V5.5765H14.2877V5.57653Z" fill="url(#paint3_linear)"/>
</g>
<defs>
<linearGradient id="paint0_linear" x1="4.43598" y1="0" x2="4.43598" y2="3.78825" gradientUnits="userSpaceOnUse">
<stop stop-color="#9806DF"/>
<stop offset="1" stop-color="#36A4FD"/>
</linearGradient>
<linearGradient id="paint1_linear" x1="10.5639" y1="0" x2="10.5639" y2="3.78825" gradientUnits="userSpaceOnUse">
<stop stop-color="#9806DF"/>
<stop offset="1" stop-color="#36A4FD"/>
</linearGradient>
<linearGradient id="paint2_linear" x1="7.49994" y1="6.51611" x2="7.49994" y2="15.0001" gradientUnits="userSpaceOnUse">
<stop stop-color="#9806DF"/>
<stop offset="1" stop-color="#36A4FD"/>
</linearGradient>
<linearGradient id="paint3_linear" x1="7.49993" y1="1.42432" x2="7.49993" y2="5.57653" gradientUnits="userSpaceOnUse">
<stop stop-color="#9806DF"/>
<stop offset="1" stop-color="#36A4FD"/>
</linearGradient>
<clipPath id="clip0">
<rect width="15" height="15" fill="white"/>
</clipPath>
</defs>
</svg>
