<svg width="160" height="28" viewBox="0 0 160 28" fill="none" xmlns="http://www.w3.org/2000/svg">
<path d="M8.66698 27.1134C8.09962 27.1134 7.61796 26.7732 7.53424 26.3126L4.7201 10.8515L4.54871 9.76056H4.29163V26.1744C4.29163 26.6932 3.77845 27.1143 3.14608 27.1143H1.14555C0.513183 27.1134 0 26.6924 0 26.1736V2.65747C0 1.87524 0.772237 1.2417 1.72571 1.2417H4.23548C5.06387 1.2417 5.77602 1.72494 5.93066 2.39242L8.40891 13.0689L8.62364 14.4418H8.70934L8.92407 13.0689L11.4023 2.39242C11.5579 1.72494 12.2701 1.2417 13.0985 1.2417H15.6083C16.5617 1.2417 17.334 1.87524 17.334 2.65747V26.1736C17.334 26.6924 16.8208 27.1134 16.1884 27.1134H14.1879C13.5555 27.1134 13.0423 26.6924 13.0423 26.1736V9.75976H12.7853L12.6139 10.8507L9.79973 26.3126C9.716 26.7732 9.23434 27.1134 8.66698 27.1134Z" fill="#0075FF"/>
<path d="M31.6218 21.6303V22.4319C31.4927 24.2978 30.8062 25.5996 29.2617 26.6202C28.4895 27.1479 27.4168 27.3944 26.0014 27.3944C23.2129 27.3944 21.7964 26.1273 21.1099 24.8602C20.7238 24.1208 20.4667 23.2764 20.4233 22.3261V12.646C20.5524 10.7801 21.2813 9.40796 22.8257 8.35178C23.5556 7.8241 24.6273 7.57764 26.0437 7.57764C28.8323 7.57764 30.2487 8.84472 30.9352 10.0771C31.3213 10.8165 31.5784 11.6262 31.6218 12.5409V16.722C31.6218 17.5042 30.8495 18.1377 29.8961 18.1377H24.4569V22.3269C24.5002 23.0663 24.7573 23.5939 25.1434 23.981C25.3582 24.1572 25.6586 24.2622 26.0447 24.2622C26.8603 24.2622 27.2464 23.8396 27.4178 23.3119C27.5468 23.0299 27.5892 22.7131 27.5892 22.3261V21.6303C27.5892 20.8481 28.3614 20.2145 29.3149 20.2145H29.8961C30.8485 20.2137 31.6218 20.8481 31.6218 21.6303ZM24.4559 15.3563H27.5882V12.646C27.5882 11.9066 27.4168 11.3789 26.9874 10.9563C26.7726 10.7801 26.4298 10.675 26.0437 10.675C25.2282 10.675 24.8854 11.1324 24.6706 11.6609C24.5416 11.9429 24.4993 12.2597 24.4559 12.6468V15.3563Z" fill="#0075FF"/>
<path d="M34.5811 25.6977V2.65747C34.5811 1.87524 35.3533 1.2417 36.3068 1.2417H38.2275C42.5182 1.2417 44.8349 1.94554 46.0789 3.91647C47.2806 5.8874 47.452 9.12621 47.452 14.1945C47.452 19.2629 47.2806 22.4661 46.0789 24.4379C44.8349 26.4088 42.5182 27.1126 38.2275 27.1126H36.3068C35.3533 27.1134 34.5811 26.4799 34.5811 25.6977ZM39.2145 23.3122C40.8023 23.3122 41.7026 23.1716 42.1754 21.9045C42.3901 21.3065 42.5615 20.391 42.6048 19.1586C42.6482 17.9263 42.6482 16.2721 42.6482 14.1606C42.6482 12.0483 42.6482 10.3941 42.6048 9.16258C42.5615 7.9658 42.3901 7.05104 42.1754 6.41669C41.7036 5.18436 40.8023 5.04375 39.2145 5.04375V23.3122Z" fill="#0075FF"/>
<path d="M52.2677 1.2417H53.4497C54.4032 1.2417 55.1754 1.87524 55.1754 2.65747V25.6977C55.1754 26.4799 54.4032 27.1134 53.4497 27.1134H52.2677C51.3142 27.1134 50.542 26.4799 50.542 25.6977V2.65747C50.542 1.87524 51.3152 1.2417 52.2677 1.2417Z" fill="#0075FF"/>
<path d="M57.6193 25.486L61.8607 2.44575C61.9878 1.75403 62.7137 1.2417 63.5667 1.2417H66.2607C67.1147 1.2417 67.8396 1.75403 67.9677 2.44656L72.2091 25.4868C72.3667 26.3433 71.558 27.1143 70.5021 27.1143H69.5141C68.6493 27.1143 67.9174 26.589 67.8032 25.8852L67.1452 21.8342H62.6832L62.0252 25.8852C61.9109 26.589 61.1791 27.1143 60.3143 27.1143H59.3263C58.2704 27.1134 57.4617 26.3425 57.6193 25.486ZM65.1713 9.6547L65.0422 8.98561H64.7851L64.6561 9.6547L63.3264 17.8212H66.501L65.1713 9.6547Z" fill="#0075FF"/>
<path d="M158.749 17.0202C157.69 16.3374 156.284 16.4981 155.413 17.4028C152.813 20.1063 148.955 23.508 141.795 23.8718C132.695 24.3352 128.498 18.912 128.672 17.5774C128.845 16.2428 134.68 13.067 139.166 13.1372C143.653 13.2073 141.184 20.4603 135.792 17.867C135.792 17.867 136.768 22.091 142.081 21.8014C146.07 21.5844 148.683 19.3484 149.774 16.2183C150.408 14.4 149.314 12.4389 147.427 11.938C145.054 11.3082 142.476 10.8938 139.762 10.8661C127.313 10.7364 122.617 17.5358 122.617 17.5358C122.617 17.5358 127.154 25.2448 140.935 25.6143C149.434 25.8419 155.397 23.3653 158.717 21.4327C160.381 20.4652 160.437 18.115 158.823 17.0684C158.799 17.0529 158.774 17.0365 158.749 17.0202Z" fill="url(#paint0_linear)"/>
<path d="M112.486 17.0202C111.427 16.3374 110.021 16.4981 109.15 17.4028C106.551 20.1063 102.692 23.508 95.5324 23.8718C86.4325 24.3352 82.2356 18.912 82.409 17.5774C82.5824 16.2428 88.4173 13.067 92.9038 13.1372C97.3903 13.2073 94.9209 20.4603 89.5291 17.867C89.5291 17.867 90.5049 22.091 95.8179 21.8014C99.8074 21.5844 102.42 19.3484 103.511 16.2183C104.145 14.4 103.052 12.4389 101.164 11.938C98.7909 11.3082 96.2128 10.8938 93.4995 10.8661C81.0507 10.7364 76.3542 17.5358 76.3542 17.5358C76.3542 17.5358 80.8914 25.2448 94.672 25.6143C103.171 25.8419 109.134 23.3653 112.455 21.4327C114.118 20.4652 114.175 18.115 112.561 17.0684C112.537 17.0529 112.511 17.0365 112.486 17.0202Z" fill="url(#paint1_linear)"/>
<path d="M155.697 0.424232C133 3.97958 122.005 10.6641 118.096 13.6039C114.187 10.6641 103.192 3.97958 80.4952 0.424232C79.9835 0.343913 79.4585 0.42751 78.9973 0.66273C76.8633 1.75277 77.4572 4.91472 79.845 5.17781C90.0256 6.29736 107.015 8.99542 115.721 15.0349V24.574C115.721 25.8698 116.785 26.9205 118.096 26.9205C119.407 26.9205 120.47 25.8698 120.47 24.574V15.0349C129.177 8.99542 146.167 6.29654 156.347 5.17781C158.735 4.91554 159.329 1.75359 157.195 0.66273C156.734 0.42751 156.209 0.343913 155.697 0.424232Z" fill="url(#paint2_linear)"/>
<defs>
<linearGradient id="paint0_linear" x1="119.628" y1="23.2656" x2="161.474" y2="22.3165" gradientUnits="userSpaceOnUse">
<stop stop-color="#48D1FE"/>
<stop offset="1" stop-color="#FDA4FF"/>
</linearGradient>
<linearGradient id="paint1_linear" x1="75.8787" y1="18.5008" x2="115.823" y2="18.5008" gradientUnits="userSpaceOnUse">
<stop stop-color="#7423FB"/>
<stop offset="0.919153" stop-color="#09DEFE"/>
</linearGradient>
<linearGradient id="paint2_linear" x1="79.3121" y1="19.0641" x2="158.214" y2="16.7044" gradientUnits="userSpaceOnUse">
<stop stop-color="#6100FF" stop-opacity="0.85"/>
<stop offset="0.382867" stop-color="#08E0FE"/>
<stop offset="0.993948" stop-color="#FDA4FF"/>
</linearGradient>
</defs>
</svg>
