<svg width="41" height="42" viewBox="0 0 41 42" fill="none" xmlns="http://www.w3.org/2000/svg">
<g filter="url(#filter0_b)">
<path d="M3 14.3064C3 12.9214 3.57451 11.5984 4.58657 10.6528L11.1422 4.52808C12.0682 3.66289 13.2883 3.18164 14.5556 3.18164H33C35.7614 3.18164 38 5.42022 38 8.18164V27.601C38 28.9052 37.4904 30.1578 36.5799 31.0916L31.1384 36.6722C30.1974 37.6374 28.9065 38.1816 27.5585 38.1816H8C5.23857 38.1816 3 35.9431 3 33.1816V14.3064Z" fill="#E4E4E4"/>
</g>
<g filter="url(#filter1_b)">
<path d="M0.5 12.8413C0.5 11.5947 1.01706 10.4041 1.92791 9.55308L10.1264 1.89344C10.9598 1.11477 12.0579 0.681641 13.1985 0.681641H36C38.4853 0.681641 40.5 2.69636 40.5 5.18164V29.1358C40.5 30.3096 40.0414 31.437 39.2219 32.2774L32.3518 39.3232C31.5049 40.1918 30.3431 40.6816 29.1299 40.6816H5C2.51472 40.6816 0.5 38.6669 0.5 36.1816V12.8413Z" stroke="#616161"/>
</g>
<defs>
<filter id="filter0_b" x="-19" y="-18.8184" width="79" height="79" filterUnits="userSpaceOnUse" color-interpolation-filters="sRGB">
<feFlood flood-opacity="0" result="BackgroundImageFix"/>
<feGaussianBlur in="BackgroundImage" stdDeviation="11"/>
<feComposite in2="SourceAlpha" operator="in" result="effect1_backgroundBlur"/>
<feBlend mode="normal" in="SourceGraphic" in2="effect1_backgroundBlur" result="shape"/>
</filter>
<filter id="filter1_b" x="-22" y="-21.8184" width="85" height="85" filterUnits="userSpaceOnUse" color-interpolation-filters="sRGB">
<feFlood flood-opacity="0" result="BackgroundImageFix"/>
<feGaussianBlur in="BackgroundImage" stdDeviation="11"/>
<feComposite in2="SourceAlpha" operator="in" result="effect1_backgroundBlur"/>
<feBlend mode="normal" in="SourceGraphic" in2="effect1_backgroundBlur" result="shape"/>
</filter>
</defs>
</svg>
