<svg width="21" height="21" viewBox="0 0 21 21" fill="none" xmlns="http://www.w3.org/2000/svg">
<g clip-path="url(#clip0)">
<path d="M10.5 15.7598C13.4003 15.7598 15.7598 13.3998 15.7598 10.4995C15.7598 7.59925 13.4003 5.2393 10.5 5.23931C7.60018 5.23931 5.24023 7.59878 5.24023 10.4995C5.24024 13.4003 7.60018 15.7598 10.5 15.7598Z" fill="white"/>
<path d="M10.5001 17.3059C11.0669 17.3059 11.5264 17.7654 11.5264 18.3318L11.5264 19.9737C11.5264 20.5406 11.0669 21 10.5001 21C9.93323 21 9.4738 20.5406 9.4738 19.9737L9.4738 18.3318C9.4738 17.7654 9.9337 17.3059 10.5001 17.3059Z" fill="white"/>
<path d="M10.5001 3.69434C11.0669 3.69434 11.5264 3.2349 11.5264 2.66805L11.5264 1.02656C11.5264 0.45924 11.0669 -0.000192602 10.5001 -0.000192552C9.93323 -0.000192503 9.4738 0.45924 9.4738 1.02656L9.4738 2.66805C9.4738 3.2349 9.9337 3.69434 10.5001 3.69434Z" fill="white"/>
<path d="M5.688 15.3124C6.08838 15.7132 6.08838 16.3628 5.688 16.7637L4.52686 17.9248C4.12649 18.3252 3.4764 18.3252 3.07556 17.9248C2.67471 17.524 2.67471 16.8739 3.07556 16.4735L4.23669 15.3124C4.63707 14.9115 5.28669 14.9115 5.688 15.3124Z" fill="white"/>
<path d="M15.3124 5.6873C15.7133 6.08861 16.3629 6.08861 16.7637 5.6873L17.9249 4.52663C18.3253 4.12625 18.3257 3.4757 17.9249 3.07532C17.524 2.67494 16.874 2.67494 16.4736 3.07532L15.3124 4.23692C14.9116 4.6373 14.9116 5.28739 15.3124 5.6873Z" fill="white"/>
<path d="M3.69434 10.5001C3.69434 11.0669 3.2349 11.5264 2.66805 11.5264L1.02609 11.5264C0.459239 11.5264 -0.00019459 11.0669 -0.000194639 10.5001C-0.000194689 9.93323 0.459239 9.47426 1.02609 9.47426L2.66805 9.47426C3.2349 9.47426 3.69434 9.93323 3.69434 10.5001Z" fill="white"/>
<path d="M17.3059 10.5001C17.3059 11.0669 17.7654 11.5264 18.3322 11.5264L19.9737 11.5264C20.5406 11.5264 21 11.0669 21 10.5001C21 9.93323 20.5406 9.47426 19.9737 9.47426L18.3318 9.47426C17.7654 9.47426 17.3059 9.93323 17.3059 10.5001Z" fill="white"/>
<path d="M5.68814 5.68702C5.2873 6.0874 4.63721 6.0874 4.23683 5.68702L3.07569 4.52589C2.67485 4.12597 2.67485 3.47542 3.07569 3.07504C3.47654 2.67467 4.12616 2.67467 4.527 3.07504L5.68814 4.23618C6.08898 4.63702 6.08898 5.28665 5.68814 5.68702Z" fill="white"/>
<path d="M15.3123 15.3125C14.9114 15.7133 14.9114 16.363 15.3123 16.7638L16.4734 17.9245C16.8742 18.3253 17.5239 18.3253 17.9247 17.9245C18.3256 17.5241 18.3256 16.874 17.9247 16.4736L16.7636 15.3125C16.3627 14.9112 15.7131 14.9112 15.3123 15.3125Z" fill="white"/>
</g>
<defs>
<clipPath id="clip0">
<rect width="21" height="21" fill="white" transform="translate(21 21) rotate(180)"/>
</clipPath>
</defs>
</svg>
