<svg width="21" height="29" viewBox="0 0 21 29" fill="none" xmlns="http://www.w3.org/2000/svg">
<path d="M10.5093 29C4.94479 29 0.417969 24.448 0.417969 18.8527C0.417969 16.4143 1.24855 14.7564 2.21056 12.8368C2.74444 11.7709 3.29668 10.6688 3.80667 9.26251L4.33723 7.79937C5.11958 7.99097 4.85452 7.92615 5.63665 8.11775L5.43089 9.66055C5.26251 10.9212 5.49261 12.3512 6.0619 13.5836C6.30328 14.1064 6.59467 14.5704 6.91814 14.956C6.80597 12.909 7.01572 10.9358 7.54539 9.06892C8.10074 7.11194 8.99172 5.30762 10.1938 3.70576C11.6899 1.71249 13.4081 0.410645 14.2049 0.303558L16.463 0L14.9434 1.69789C14.2531 2.46896 13.873 3.46437 13.873 4.50072C13.873 6.50394 15.1018 7.92548 16.5245 9.5716C17.4367 10.6268 18.4704 11.8228 19.2534 13.2922C20.1599 14.9932 20.6004 16.8119 20.6004 18.8527C20.6004 24.448 16.0736 29 10.5093 29ZM4.03699 12.9424C3.92725 13.1647 3.81928 13.3802 3.71419 13.5902C2.81214 15.3903 2.09993 16.8121 2.09993 18.8527C2.09993 23.5205 5.87228 27.318 10.5093 27.318C15.1461 27.318 18.9187 23.5205 18.9187 18.8527C18.9187 14.9133 17.0546 12.757 15.2521 10.6714C13.6778 8.85032 12.191 7.13008 12.191 4.50072C12.191 4.29097 12.2021 4.08255 12.2242 3.8759C11.7499 4.41266 11.2518 5.06336 10.781 5.83133C9.45193 7.9996 8.02618 11.6381 8.78308 16.6601L9.00433 18.1296L7.63058 17.5628C6.369 17.042 5.26959 15.8793 4.53481 14.2887C4.33347 13.8526 4.16709 13.4015 4.03699 12.9424Z" fill="url(#paint0_linear)"/>
<defs>
<linearGradient id="paint0_linear" x1="10.5092" y1="0" x2="10.5092" y2="29" gradientUnits="userSpaceOnUse">
<stop stop-color="#5AD9FF"/>
<stop offset="1" stop-color="#D21BFF"/>
</linearGradient>
</defs>
</svg>
