<svg width="288" height="189" viewBox="0 0 288 189" fill="none" xmlns="http://www.w3.org/2000/svg">
<path d="M8.56545 10L4 15.8962V174C4 180.075 8.92487 185 15 185H275L283 179.5V21C283 14.9249 278.075 10 272 10H8.56545Z" fill="white"/>
<path d="M6 7.47583L1 13.5582V177C1 183.075 5.92488 188 12 188H275.578L287 180.701V18.4758C287 12.4007 282.075 7.47583 276 7.47583H6Z" stroke="#646464"/>
<path d="M6 4.23755L1 10.429V176.999C1 183.075 5.92488 187.999 12 187.999H275.578L287 180.57V15.2375C287 9.16242 282.075 4.23755 276 4.23755H6Z" stroke="#646464"/>
<path d="M6 1L1 7.30054V177C1 183.075 5.92488 188 12 188H275.578L287 180.439V12C287 5.92487 282.075 1 276 1H6Z" stroke="#646464"/>
</svg>
