<svg width="17" height="15" viewBox="0 0 17 15" fill="none" xmlns="http://www.w3.org/2000/svg">
<path d="M8.54785 14.9573C8.03465 14.4954 7.45462 14.0149 6.84118 13.5038H6.83322C4.67302 11.7111 2.2248 9.6827 1.14351 7.25213C0.788265 6.47832 0.600003 5.63642 0.591318 4.78279C0.588945 3.6115 1.05183 2.48868 1.87536 1.66808C2.69889 0.847483 3.81355 0.398388 4.96741 0.422295C5.90678 0.4238 6.82593 0.699333 7.61534 1.21607C7.96222 1.44456 8.27607 1.72096 8.54785 2.03729C8.82115 1.7222 9.13508 1.44597 9.48115 1.21607C10.2702 0.699231 11.1891 0.423682 12.1283 0.422295C13.2822 0.398388 14.3968 0.847483 15.2203 1.66808C16.0439 2.48868 16.5068 3.6115 16.5044 4.78279C16.4963 5.63779 16.308 6.48112 15.9522 7.25617C14.8709 9.68674 12.4235 11.7144 10.2633 13.5038L10.2553 13.5103C9.64108 14.0182 9.06184 14.4986 8.54865 14.9638L8.54785 14.9573ZM4.96741 2.03729C4.22627 2.02788 3.51143 2.31576 2.97828 2.83833C2.4646 3.35042 2.1775 4.05204 2.18256 4.78279C2.19164 5.40497 2.33048 6.01815 2.59001 6.5819C3.10042 7.63061 3.78914 8.5797 4.62449 9.38554C5.41298 10.193 6.32002 10.9747 7.10454 11.632C7.32175 11.8137 7.54294 11.997 7.76413 12.1803L7.90337 12.2958C8.11581 12.4718 8.33541 12.6543 8.54785 12.8336L8.55819 12.8239L8.56297 12.8198H8.56774L8.5749 12.8142H8.57888H8.58286L8.59718 12.8021L8.6298 12.7754L8.63537 12.7706L8.64412 12.7641H8.6489L8.65606 12.7577L9.18437 12.3176L9.32281 12.2021C9.54639 12.0172 9.76758 11.8339 9.9848 11.6522C10.7693 10.9949 11.6771 10.214 12.4656 9.4025C13.3011 8.59707 13.9898 7.64822 14.5001 6.59967C14.7643 6.03103 14.9052 5.41144 14.9131 4.78279C14.9164 4.0543 14.6294 3.35537 14.1174 2.84479C13.5853 2.31985 12.8703 2.02961 12.1283 2.03729C11.2228 2.02948 10.3571 2.41469 9.74928 3.09593L8.54785 4.50098L7.34641 3.09593C6.73859 2.41469 5.87293 2.02948 4.96741 2.03729Z" fill="url(#paint0_linear)"/>
<defs>
<linearGradient id="paint0_linear" x1="8.54785" y1="0.421387" x2="8.54785" y2="14.9638" gradientUnits="userSpaceOnUse">
<stop stop-color="#55E0FF"/>
<stop offset="1" stop-color="#DC09FF"/>
</linearGradient>
</defs>
</svg>
