<svg width="40" height="40" viewBox="0 0 40 40" fill="none" xmlns="http://www.w3.org/2000/svg">
<path d="M28.3333 3.33325H11.6666C7.06421 3.33325 3.33325 7.06421 3.33325 11.6666V28.3333C3.33325 32.9356 7.06421 36.6666 11.6666 36.6666H28.3333C32.9356 36.6666 36.6666 32.9356 36.6666 28.3333V11.6666C36.6666 7.06421 32.9356 3.33325 28.3333 3.33325Z" stroke="#353049" stroke-width="4" stroke-linecap="round" stroke-linejoin="round"/>
<path d="M26.6667 18.9498C26.8724 20.3368 26.6355 21.7535 25.9897 22.9981C25.3438 24.2428 24.322 25.2521 23.0695 25.8826C21.8169 26.513 20.3975 26.7324 19.0131 26.5097C17.6286 26.2869 16.3497 25.6332 15.3581 24.6417C14.3666 23.6502 13.713 22.3712 13.4902 20.9868C13.2674 19.6024 13.4869 18.1829 14.1173 16.9304C14.7477 15.6779 15.7571 14.656 17.0017 14.0102C18.2464 13.3643 19.663 13.1274 21.0501 13.3331C22.465 13.5429 23.7748 14.2022 24.7862 15.2136C25.7976 16.225 26.4569 17.5349 26.6667 18.9498Z" stroke="#353049" stroke-width="4" stroke-linecap="round" stroke-linejoin="round"/>
<path d="M29.1667 10.8333H29.1834" stroke="#353049" stroke-width="2" stroke-linecap="round" stroke-linejoin="round"/>
</svg>
