<svg width="21" height="21" viewBox="0 0 21 21" fill="none" xmlns="http://www.w3.org/2000/svg">
<g clip-path="url(#clip0)">
<path d="M7.27278 20.2518C12.0126 22.2563 18.2742 20.0637 20.2673 15.6938C17.0695 18.0176 13.6993 18.424 10.2758 16.3124C7.26263 14.4538 5.8357 11.5873 6.27697 8.10277C6.83852 3.66841 9.64345 1.21004 14.0168 0.414502C9.96392 -0.86595 3.78251 0.700907 1.41368 6.78994C-0.416861 11.4961 1.41058 17.7723 7.27278 20.2518Z" fill="white"/>
<path d="M13.4265 4.46564L14.7891 5.78502L14.4751 7.71115C14.4269 8.0066 14.6109 8.15044 14.8861 8.03239L16.5738 7.30842L18.2615 8.03239C18.5366 8.15044 18.7104 8.00848 18.6498 7.71522L18.25 5.7849L19.7101 4.45364C19.9313 4.25199 19.8719 4.04486 19.5774 3.9911L17.734 3.6547L16.8326 1.99516C16.6897 1.73208 16.4581 1.73208 16.3152 1.99516L15.4139 3.6547L13.5703 3.99126C13.2758 4.04494 13.2113 4.25724 13.4265 4.46564Z" fill="white"/>
<path d="M16.3963 12.3947L15.0697 12.1527L14.421 10.9584C14.3181 10.7691 14.1515 10.7691 14.0486 10.9584L13.3999 12.1527L12.0734 12.3947C11.8615 12.4333 11.8152 12.5862 11.9699 12.7361L12.9506 13.6856L12.7245 15.0718C12.6898 15.2844 12.8223 15.3879 13.0203 15.3029L14.2348 14.7821L15.4493 15.3029C15.6473 15.3879 15.7724 15.2858 15.7286 15.0747L15.441 13.6856L16.4917 12.7276C16.6511 12.5823 16.6083 12.4333 16.3963 12.3947Z" fill="white"/>
</g>
<defs>
<clipPath id="clip0">
<rect width="21" height="21" fill="white"/>
</clipPath>
</defs>
</svg>
