<svg width="40" height="40" viewBox="0 0 40 40" fill="none" xmlns="http://www.w3.org/2000/svg">
<path d="M20 0.699219C8.95161 0.699219 0 9.37109 0 20.0742C0 30.7773 8.95161 39.4492 20 39.4492C31.0484 39.4492 40 30.7773 40 20.0742C40 9.37109 31.0484 0.699219 20 0.699219ZM29.8226 13.9727L26.5403 28.957C26.2984 30.0195 25.6452 30.2773 24.7339 29.7773L19.7339 26.207L17.3226 28.457C17.0565 28.7148 16.8306 28.9336 16.3145 28.9336L16.6694 24.0039L25.9355 15.8945C26.3387 15.5508 25.8468 15.3555 25.3145 15.6992L13.8629 22.6836L8.92742 21.1914C7.85484 20.8633 7.83065 20.1523 9.15323 19.6523L28.4355 12.4492C29.3306 12.1367 30.1129 12.6602 29.8226 13.9727Z" fill="#353049"/>
</svg>
