<svg width="39" height="32" viewBox="0 0 39 32" fill="none" xmlns="http://www.w3.org/2000/svg">
<path d="M38.4053 4.44607C37.0137 5.06274 35.5187 5.47941 33.947 5.66774C35.5687 4.69739 36.7819 3.17018 37.3603 1.37107C35.8368 2.27605 34.1693 2.91306 32.4303 3.25441C31.261 2.00585 29.7121 1.17828 28.0242 0.900196C26.3363 0.622109 24.6038 0.909058 23.0957 1.71649C21.5876 2.52393 20.3883 3.80668 19.6839 5.36558C18.9796 6.92448 18.8096 8.67232 19.2003 10.3377C16.1132 10.1827 13.0931 9.38032 10.3361 7.98258C7.57905 6.58484 5.14675 4.62301 3.19701 2.22441C2.53034 3.37441 2.14701 4.70774 2.14701 6.12774C2.14627 7.40606 2.46107 8.66481 3.06348 9.79229C3.66589 10.9198 4.53728 11.8811 5.60035 12.5911C4.36747 12.5518 3.1618 12.2187 2.08368 11.6194V11.7194C2.08355 13.5123 2.70373 15.25 3.83898 16.6377C4.97423 18.0254 6.55463 18.9776 8.31201 19.3327C7.16832 19.6423 5.96924 19.6879 4.80535 19.4661C5.30117 21.0088 6.267 22.3578 7.56762 23.3243C8.86824 24.2908 10.4385 24.8264 12.0587 24.8561C9.3084 27.0151 5.91182 28.1862 2.41534 28.1811C1.79598 28.1812 1.17714 28.1451 0.562012 28.0727C4.11114 30.3547 8.24258 31.5658 12.462 31.5611C26.7453 31.5611 34.5537 19.7311 34.5537 9.47107C34.5537 9.13774 34.5453 8.80107 34.5303 8.46774C36.0492 7.36936 37.3602 6.00923 38.402 4.45107L38.4053 4.44607Z" fill="#353049"/>
</svg>
