<svg width="21" height="22" viewBox="0 0 21 22" fill="none" xmlns="http://www.w3.org/2000/svg">
<path d="M15.3462 7.65286H21V5.02786C21 3.35775 19.6413 1.99902 17.9712 1.99902H3.02884C1.35872 1.99902 0 3.35775 0 5.02786V16.3355C0 18.0057 1.35872 19.3644 3.02884 19.3644H17.9712C19.6413 19.3644 21 18.0057 21 16.3355V13.7105H15.3462C13.676 13.7105 12.3173 12.3518 12.3173 10.6817C12.3173 9.01159 13.676 7.65286 15.3462 7.65286Z" fill="#0075FF"/>
<path d="M15.3456 8.86426C14.3436 8.86426 13.5283 9.67948 13.5283 10.6816C13.5283 11.6837 14.3435 12.4989 15.3456 12.4989H20.9995V8.8643H15.3456V8.86426ZM16.1533 11.2873H15.3456C15.0111 11.2873 14.7399 11.0161 14.7399 10.6816C14.7399 10.3471 15.0111 10.0758 15.3456 10.0758H16.1533C16.4879 10.0758 16.7591 10.3471 16.7591 10.6816C16.7591 11.0161 16.4879 11.2873 16.1533 11.2873Z" fill="#0075FF"/>
</svg>
