<svg width="40" height="41" viewBox="0 0 40 41" fill="none" xmlns="http://www.w3.org/2000/svg">
<path d="M20 0.218018C8.95536 0.218018 0 9.17338 0 20.218C0 31.2627 8.95536 40.218 20 40.218C31.0446 40.218 40 31.2627 40 20.218C40 9.17338 31.0446 0.218018 20 0.218018ZM31.4286 11.5439L29.6071 13.2894C29.4464 13.41 29.3705 13.6064 29.4018 13.7984V26.6421C29.3705 26.8386 29.4464 27.035 29.6071 27.1511L31.3929 28.8966V29.285H22.4286V28.9144L24.2723 27.1243C24.4554 26.9412 24.4554 26.8877 24.4554 26.6153V16.2225L19.3214 29.2403H18.6295L12.6562 16.2225V24.9502C12.6027 25.3162 12.7321 25.6868 12.9911 25.9502L15.3929 28.8564V29.2448H8.57143V28.8564L10.9732 25.9502C11.0998 25.8194 11.1939 25.6609 11.2482 25.4873C11.3025 25.3136 11.3153 25.1297 11.2857 24.9502V14.8609C11.317 14.5796 11.2098 14.3073 10.9955 14.1153L8.86161 11.5439V11.1555H15.4911L20.6071 22.3832L25.1116 11.1644H31.4286V11.5439Z" fill="#353049"/>
</svg>
