<svg width="40" height="40" viewBox="0 0 40 40" fill="none" xmlns="http://www.w3.org/2000/svg">
<path fill-rule="evenodd" clip-rule="evenodd" d="M20 0.0742188C8.95 0.0742188 0 9.02422 0 20.0742C0 28.9242 5.725 36.3992 13.675 39.0492C14.675 39.2242 15.05 38.6242 15.05 38.0992C15.05 37.6242 15.025 36.0492 15.025 34.3742C10 35.2992 8.7 33.1492 8.3 32.0242C8.075 31.4492 7.1 29.6742 6.25 29.1992C5.55 28.8242 4.55 27.8992 6.225 27.8742C7.8 27.8492 8.925 29.3242 9.3 29.9242C11.1 32.9492 13.975 32.0992 15.125 31.5742C15.3 30.2742 15.825 29.3992 16.4 28.8992C11.95 28.3992 7.3 26.6742 7.3 19.0242C7.3 16.8492 8.075 15.0492 9.35 13.6492C9.15 13.1492 8.45 11.0992 9.55 8.34922C9.55 8.34922 11.225 7.82422 15.05 10.3992C16.65 9.94922 18.35 9.72422 20.05 9.72422C21.75 9.72422 23.45 9.94922 25.05 10.3992C28.875 7.79922 30.55 8.34922 30.55 8.34922C31.65 11.0992 30.95 13.1492 30.75 13.6492C32.025 15.0492 32.8 16.8242 32.8 19.0242C32.8 26.6992 28.125 28.3992 23.675 28.8992C24.4 29.5242 25.025 30.7242 25.025 32.5992C25.025 35.2742 25 37.4242 25 38.0992C25 38.6242 25.375 39.2492 26.375 39.0492C30.3453 37.7088 33.7953 35.157 36.2394 31.7532C38.6836 28.3493 39.9988 24.2647 40 20.0742C40 9.02422 31.05 0.0742188 20 0.0742188Z" fill="#353049"/>
</svg>
