<svg width="36" height="41" viewBox="0 0 36 41" fill="none" xmlns="http://www.w3.org/2000/svg">
<path d="M18.8851 0.251523C21.0663 0.217773 23.2351 0.237773 25.4013 0.217773C25.5326 2.76902 26.4501 5.36777 28.3176 7.17152C30.1813 9.02027 32.8176 9.86652 35.3826 10.1528V16.864C32.9788 16.7853 30.5638 16.2853 28.3826 15.2503C27.4326 14.8203 26.5476 14.2665 25.6813 13.7003C25.6701 18.5703 25.7013 23.434 25.6501 28.284C25.5201 30.614 24.7513 32.9328 23.3963 34.8528C21.2163 38.049 17.4326 40.1328 13.5463 40.1978C11.1626 40.334 8.78134 39.684 6.75009 38.4865C3.38384 36.5015 1.01509 32.8678 0.670093 28.9678C0.626637 28.1418 0.619963 27.3143 0.650093 26.4878C0.950093 23.3165 2.51884 20.2828 4.95384 18.219C7.71384 15.8153 11.5801 14.6703 15.2001 15.3478C15.2338 17.8165 15.1351 20.2828 15.1351 22.7515C13.4813 22.2165 11.5488 22.3665 10.1038 23.3703C9.04665 24.0667 8.24772 25.0914 7.83009 26.2865C7.48509 27.1315 7.58384 28.0703 7.60384 28.9678C8.00009 31.7028 10.6301 34.0015 13.4376 33.7528C15.2988 33.7328 17.0826 32.6528 18.0526 31.0715C18.3663 30.5178 18.7176 29.9515 18.7363 29.3003C18.9001 26.319 18.8351 23.3503 18.8551 20.369C18.8688 13.6503 18.8351 6.95027 18.8863 0.252773L18.8851 0.251523Z" fill="#353049"/>
</svg>
